# xmcd
#
# Track frame offsets:
#	150
#	13449
#	30097
#	41137
#	53399
#	67762
#	84476
#	105426
#	121666
#	136322
#	161132
#	178886
#
# Disc length: 2716 seconds
#
# Revision: 0
# Processed by: cddbd v1.5.2PL0 Copyright (c) Steve Scherf et al.
# Submitted via: EasyCDDAExtractor 12.0.1.1
#
DISCID=8f0a9a0c
DTITLE=Jenny Arean - In Concert...
DYEAR=2008
DGENRE=Vocal
TTITLE0=Ontstaan, er zijn, en weer verdwijnen
TTITLE1=Dubbel
TTITLE2=Wintertenen luizen en eczeem
TTITLE3=Tijd vliegt
TTITLE4=Woorden
TTITLE5=Iemand moet het doen
TTITLE6=We gaan uit elkaar
TTITLE7=Er rijdt een trein
TTITLE8=Top
TTITLE9=Joodse vrouw
TTITLE10=Beloof het me
TTITLE11=Schoenen
EXTD=
EXTT0=
EXTT1=
EXTT2=
EXTT3=
EXTT4=
EXTT5=
EXTT6=
EXTT7=
EXTT8=
EXTT9=
EXTT10=
EXTT11=
PLAYORDER=
